<svg width="36" height="36" viewBox="0 0 36 36" fill="none" xmlns="http://www.w3.org/2000/svg">
<g opacity="0.87">
<path fill-rule="evenodd" clip-rule="evenodd" d="M18 4.5C10.5442 4.5 4.5 10.5442 4.5 18C4.5 25.4558 10.5442 31.5 18 31.5C25.4558 31.5 31.5 25.4558 31.5 18C31.5 10.5442 25.4558 4.5 18 4.5ZM1.5 18C1.5 8.8873 8.8873 1.5 18 1.5C27.1127 1.5 34.5 8.8873 34.5 18C34.5 27.1127 27.1127 34.5 18 34.5C8.8873 34.5 1.5 27.1127 1.5 18Z" fill="white"/>
<path fill-rule="evenodd" clip-rule="evenodd" d="M1.5 18C1.5 17.1716 2.17157 16.5 3 16.5H33C33.8284 16.5 34.5 17.1716 34.5 18C34.5 18.8284 33.8284 19.5 33 19.5H3C2.17157 19.5 1.5 18.8284 1.5 18Z" fill="white"/>
<path fill-rule="evenodd" clip-rule="evenodd" d="M13.5003 18C13.6032 22.6123 15.1894 27.0527 18 30.6738C20.8106 27.0527 22.3968 22.6123 22.4997 18C22.3968 13.3877 20.8106 8.94727 18 5.32619C15.1894 8.94727 13.6032 13.3877 13.5003 18ZM18 3L16.8925 1.98837C12.8953 6.36436 10.6238 12.0433 10.5003 17.9688C10.4999 17.9896 10.4999 18.0104 10.5003 18.0312C10.6238 23.9567 12.8953 29.6356 16.8925 34.0116C17.1767 34.3228 17.5786 34.5 18 34.5C18.4214 34.5 18.8233 34.3228 19.1075 34.0116C23.1047 29.6356 25.3762 23.9567 25.4997 18.0312C25.5001 18.0104 25.5001 17.9896 25.4997 17.9688C25.3762 12.0433 23.1047 6.36436 19.1075 1.98837L18 3Z" fill="white"/>
</g>
</svg>
