<svg width="53" height="53" viewBox="0 0 53 53" fill="none" xmlns="http://www.w3.org/2000/svg">
<path d="M24.9473 0.0621134C21.4898 0.507231 18.4465 1.82188 15.7861 4.05782C14.8545 4.83418 13.7365 5.95215 13.2396 6.6043C13.0119 6.9045 12.898 6.95625 12.2666 7.04942C8.57109 7.567 5.50703 9.9168 4.04746 13.3432C3.46777 14.7199 3.27109 15.7344 3.27109 17.3906C3.27109 19.0469 3.46777 20.0613 4.04746 21.4381C4.84453 23.3117 6.3041 25.0715 7.89824 26.0859L8.46758 26.4482L8.73672 27.5662C9.30605 29.8643 10.2791 32.2762 11.4178 34.1602L11.8836 34.9365L11.4488 35.009C10.5068 35.1643 10.4137 35.1332 10.1652 34.6156C10.041 34.3568 9.72012 33.9221 9.46133 33.6426C7.93965 32.0174 5.3207 32.4936 4.36836 34.5639C4.15098 35.0297 4.09922 35.2988 4.10957 35.9303V36.717L3.52988 36.8826C2.33945 37.2139 1.65625 38.0316 1.65625 39.1082C1.65625 39.8639 4.17168 49.2838 4.52363 49.8221C4.6582 50.0395 4.98945 50.35 5.24824 50.5156C5.87969 50.9193 6.49043 51.0022 7.25645 50.7848C7.5877 50.6916 7.88789 50.6191 7.90859 50.6191C7.9293 50.6191 8.01211 50.7848 8.07422 50.9814C8.2502 51.5197 9.03691 52.3272 9.70977 52.6584C10.1963 52.8965 10.4344 52.9482 11.0762 52.9482C12.3598 52.9482 13.3018 52.3272 13.8504 51.1471C14.0678 50.6813 14.1195 50.4018 14.1299 49.7082L14.1402 48.8387L16.6557 47.8242L19.1607 46.7994L19.9061 47.3998C21.2621 48.4971 22.6182 49.1596 24.2744 49.5426C25.4855 49.8221 27.6904 49.8117 28.8809 49.5115C30.5578 49.0871 32.1416 48.2693 33.3527 47.2135L33.8289 46.7891L36.3443 47.8139L38.8701 48.8387L38.8805 49.7082C38.8805 50.4018 38.9322 50.6813 39.1496 51.1367C39.8432 52.6481 41.5098 53.352 43.0107 52.7826C43.7146 52.5238 44.5635 51.7475 44.8637 51.085C44.9672 50.8572 45.0707 50.6606 45.0811 50.6398C45.0914 50.6295 45.3813 50.6916 45.7332 50.7848C46.5096 51.0022 47.1203 50.9193 47.7518 50.5156C48.0105 50.35 48.3418 50.0395 48.4867 49.8221C48.7662 49.3977 49.584 46.4785 49.584 45.9195C49.584 45.4951 49.2838 45.2053 48.849 45.2053C48.3418 45.2053 48.1762 45.4848 47.7207 47.2031C47.2652 48.9111 47.1307 49.2217 46.7891 49.3252C46.4889 49.4184 45.5469 49.1803 45.5469 49.0147C45.5469 48.8076 48.3522 38.3629 48.435 38.2697C48.5592 38.1455 49.5736 38.4975 49.6875 38.7148C49.8635 39.0357 49.8117 39.4188 49.377 41.0232C49.1492 41.8617 48.9629 42.6484 48.9629 42.7623C48.9629 43.0522 49.4184 43.4766 49.7186 43.4766C50.2465 43.4766 50.4018 43.2074 50.8779 41.4063C51.4162 39.4395 51.4473 38.8908 51.0953 38.1248C50.7848 37.4727 50.2361 37.0482 49.4391 36.8516L48.8594 36.717V36.0234C48.8594 34.5639 48.3211 33.6219 47.1617 33.0215C46.551 32.7109 46.3647 32.6695 45.7229 32.6695C44.4496 32.6695 43.4248 33.3527 42.8658 34.5535C42.5863 35.1436 42.5242 35.1643 41.5305 35.009L41.0957 34.9365L41.3441 34.5639C42.4414 32.9594 43.6732 30.0092 44.2633 27.5973C44.3979 27.0279 44.5428 26.5311 44.5842 26.5C44.6359 26.4586 44.9879 26.2102 45.3813 25.9307C46.7684 24.9576 47.9277 23.6223 48.6938 22.0902C49.1078 21.2518 49.5322 20.0096 49.6357 19.3264C49.6979 18.902 49.6772 18.8191 49.4494 18.5914C48.8801 18.0221 48.2486 18.3637 48.0416 19.316C47.4309 22.2662 45.1121 24.8127 42.0998 25.8375C37.9488 27.2453 32.3279 25.0508 29.9264 21.0758C29.74 20.7549 29.4398 20.0924 29.2639 19.5955C28.974 18.7674 28.943 18.5707 28.943 17.3906C28.943 16.252 28.9844 15.9932 29.2328 15.2686C30.2887 12.1838 33.2596 9.70977 37.0379 8.77813C38.3422 8.45723 40.4229 8.45723 41.5408 8.77813C43.1971 9.2543 44.4807 9.99961 45.6607 11.1693C46.8098 12.3184 47.7311 13.9746 48.0416 15.4342C48.2486 16.4072 48.8801 16.7592 49.4287 16.2002C49.7393 15.9 49.7393 15.8379 49.4701 14.7717C48.4453 10.7035 44.9775 7.63946 40.7541 7.04942C40.1434 6.96661 40.0295 6.9045 39.7811 6.6043C39.1496 5.80723 37.0275 3.83008 36.127 3.18829C34.1602 1.79082 31.7586 0.745317 29.533 0.310551C28.4461 0.0931681 25.8271 -0.0414022 24.9473 0.0621134ZM29.4191 1.86329C32.1623 2.43262 34.7295 3.81973 37.0275 5.95215C37.5555 6.44903 37.9902 6.88379 37.9902 6.93555C37.9902 6.97696 37.6797 7.07012 37.2967 7.14258C34.45 7.62911 31.2617 9.47168 29.5123 11.6455C25.5063 16.635 27.2143 23.0219 33.4459 26.2826C36.3133 27.7836 39.6465 28.1873 42.5139 27.3695L42.7416 27.3074L42.5346 28.0631C42.017 29.9471 40.9611 32.3072 39.926 33.891L39.367 34.7502L37.6176 34.5535C36.6549 34.4397 35.8164 34.3361 35.7543 34.3154C35.6922 34.2947 35.4127 33.9428 35.1332 33.5184C34.1809 32.0795 32.4729 30.6199 30.8994 29.9057C30.1023 29.5434 28.56 29.0879 28.1459 29.0879C27.7422 29.0879 27.4316 29.4191 27.4316 29.8436C27.4316 30.3301 27.6801 30.5164 28.6428 30.7545C31.7068 31.5309 34.2637 34.0877 35.1021 37.2139C35.423 38.4043 35.423 40.2986 35.1125 41.4891C34.274 44.6359 32.0484 46.9443 28.9326 47.8863C28.1045 48.1348 27.8354 48.1658 26.5 48.1658C25.1646 48.1658 24.8955 48.1348 24.0674 47.8863C18.8398 46.3025 16.2209 40.6506 18.4361 35.7439C19.523 33.3113 21.7797 31.417 24.3883 30.7545C25.2578 30.5268 25.5684 30.299 25.5684 29.8436C25.5684 29.5537 25.1439 29.0879 24.8645 29.0879C24.7609 29.0879 24.3158 29.1811 23.8914 29.2846C21.4898 29.8953 19.316 31.4273 17.8979 33.508L17.3389 34.3154L15.8379 34.4914C15.0098 34.5846 14.1816 34.6881 13.9953 34.7191C13.6641 34.7709 13.633 34.7398 13.1051 33.9221C12.0492 32.3072 11.0037 29.9781 10.4758 28.0734L10.2584 27.3074L10.5379 27.3799C12.2977 27.825 14.3887 27.9078 15.8896 27.5869C18.7467 26.9762 21.0654 25.734 22.908 23.8189C24.1813 22.4836 24.9887 21.1275 25.4131 19.6162C25.6615 18.7053 25.734 16.6867 25.5373 15.7861C24.8748 12.66 22.6389 10.0307 19.2021 8.32266C18.2291 7.84649 17.5148 7.57735 16.6246 7.34961C15.9518 7.17364 15.31 7.03907 15.2064 7.03907C14.8959 7.03907 14.9684 6.9045 15.6619 6.25235C18.4361 3.6127 21.3863 2.11172 24.6885 1.66661C25.7961 1.51133 28.2494 1.61485 29.4191 1.86329ZM15.2789 8.64356C19.523 9.38887 23.0426 12.2666 23.9225 15.7137C24.9576 19.7611 22.0385 24.0053 17.0801 25.6926C13.7572 26.8209 10.4551 26.293 8.00176 24.233C3.90254 20.7963 3.70586 14.6992 7.56699 11.0141C9.70977 8.97481 12.4115 8.14668 15.2789 8.64356ZM46.1783 34.2637C46.4992 34.2637 47.1928 34.9676 47.3066 35.4023C47.4412 35.8992 47.5965 35.2367 45.3916 43.4766C44.1701 48.0727 43.4766 50.4846 43.3109 50.733C43.0211 51.1988 42.3172 51.5094 41.7582 51.4162C41.0232 51.292 40.3711 50.5467 40.3711 49.8324C40.3711 49.584 43.7871 36.6445 44.1598 35.4955C44.2426 35.2367 44.4393 34.8951 44.6049 34.7398C44.9258 34.4293 45.6193 34.1395 45.8367 34.2119C45.9195 34.243 46.0645 34.2637 46.1783 34.2637ZM8.12598 34.4707C8.3123 34.5846 8.56074 34.8744 8.68496 35.1125C8.96445 35.6715 12.6289 49.408 12.6289 49.9049C12.6289 50.6191 11.9354 51.3334 11.159 51.4162C10.6104 51.4783 9.96855 51.1988 9.67871 50.7641C9.53379 50.5467 6.89414 40.9301 5.78652 36.6135C5.53809 35.6094 5.63125 35.1643 6.23164 34.626C6.58359 34.3051 6.68711 34.2637 7.20469 34.2637C7.6084 34.2637 7.89824 34.3258 8.12598 34.4707ZM16.5211 36.3029C16.1691 37.866 16.1277 38.3008 16.1795 39.75C16.2209 40.9611 16.283 41.427 16.5004 42.1826C16.8109 43.2385 17.3285 44.3979 17.8047 45.0811L18.1256 45.5365L17.784 45.6814C15.2582 46.727 13.7365 47.317 13.6848 47.2549C13.6434 47.2238 12.9809 44.8326 12.2045 41.9445C11.0141 37.4934 10.8174 36.6859 10.9623 36.6549C11.3039 36.5721 15.7033 36.0441 16.1381 36.0338C16.5729 36.0234 16.5832 36.0338 16.5211 36.3029ZM39.5844 36.334C41.0129 36.51 42.1826 36.6652 42.193 36.6756C42.2344 36.717 39.4188 47.1514 39.3359 47.2342C39.2945 47.2859 38.3836 46.965 37.307 46.5303C36.2305 46.0852 35.2471 45.6918 35.1125 45.64L34.8744 45.5469L35.1953 45.0707C36.6963 42.8969 37.2863 39.4188 36.5928 36.7584C36.51 36.4272 36.4375 36.1166 36.4375 36.0855C36.4375 35.9717 36.9447 36.0131 39.5844 36.334ZM6.03496 43.5594C6.82168 46.4992 7.46348 48.9629 7.45313 49.0354C7.45313 49.0975 7.19434 49.2113 6.89414 49.2838C6.13848 49.4494 5.85898 49.2838 5.65195 48.5178C4.89629 45.8781 3.20898 39.3773 3.20898 39.1289C3.20898 38.9426 3.2918 38.7459 3.41602 38.632C3.60234 38.4768 4.23379 38.2283 4.50293 38.2076C4.56504 38.1973 5.24824 40.6092 6.03496 43.5594Z" fill="white"/>
<path d="M24.5953 3.42637C23.3738 3.60234 21.9764 4.04746 20.7445 4.6582C19.3781 5.3207 19.14 5.57949 19.3471 6.13848C19.5748 6.71816 20.0613 6.75957 20.9516 6.2627C21.7176 5.83828 22.7527 5.43457 23.8086 5.16543C24.8231 4.89629 27.0072 4.79277 28.1666 4.9584C29.2742 5.12402 30.9926 5.69336 31.9553 6.22129C32.3693 6.43867 32.8041 6.625 32.918 6.625C33.477 6.625 33.8496 6.09707 33.6426 5.58984C33.3527 4.89629 30.5061 3.72656 28.3115 3.41601C27.4524 3.30215 25.4545 3.30215 24.5953 3.42637Z" fill="white"/>
<path d="M24.792 32.359C23.8914 32.5764 22.6079 33.2389 21.8625 33.8703C19.1918 36.1373 18.5293 40.0191 20.3098 43.0418C20.8274 43.932 22.1731 45.226 23.0323 45.6711C24.2745 46.3129 25.1336 46.5303 26.5 46.5303C27.8665 46.5303 28.736 46.3129 29.9678 45.6711C30.9305 45.1742 32.2245 43.8906 32.7731 42.9072C33.6323 41.3545 33.9221 39.2842 33.4977 37.6797C32.8145 35.0607 30.8373 33.0422 28.3012 32.4004C27.3385 32.152 25.7237 32.1312 24.792 32.359ZM27.8872 33.9014C29.7401 34.3879 31.3239 35.8682 31.8932 37.6693C32.1934 38.6113 32.1934 40.0709 31.9036 40.9922C31.1375 43.3627 28.912 45.0293 26.5 45.0293C25.1026 45.0293 23.5809 44.3875 22.5664 43.373C21.4071 42.2137 20.8791 40.9301 20.8895 39.2738C20.8998 37.659 21.4795 36.365 22.6907 35.2471C23.3635 34.6156 24.2331 34.1291 25.0819 33.9014C25.7961 33.715 27.1418 33.7047 27.8872 33.9014Z" fill="white"/>
<path d="M23.5602 36.3651C23.2393 36.6859 23.2186 37.0379 23.5084 37.4106C23.9328 37.9488 24.8437 37.6072 24.8437 36.9033C24.8437 36.5721 24.5332 36.2408 24.1502 36.1684C23.8811 36.1166 23.7672 36.158 23.5602 36.3651Z" fill="white"/>
<path d="M28.4253 36.3443C27.8871 36.7687 28.1873 37.6797 28.8808 37.6797C29.5951 37.6797 29.8849 36.8516 29.3363 36.3547C29.0154 36.0752 28.7773 36.0648 28.4253 36.3443Z" fill="white"/>
<path d="M26.0032 38.8494C25.5271 39.3566 25.8583 40.102 26.5519 40.102C26.8314 40.102 26.997 40.0398 27.1316 39.8639C27.7423 39.1082 26.6657 38.1455 26.0032 38.8494Z" fill="white"/>
<path d="M23.5085 41.2613C23.0737 41.8203 23.3739 42.4828 24.0674 42.4828C24.761 42.4828 25.0612 41.8203 24.6264 41.2613C24.4711 41.0647 24.3159 40.9922 24.0674 40.9922C23.819 40.9922 23.6637 41.0647 23.5085 41.2613Z" fill="white"/>
<path d="M28.3632 41.1992C28.0526 41.5098 28.0837 42.0584 28.4253 42.3275C28.7772 42.607 29.0153 42.5967 29.3569 42.3068C29.9056 41.8307 29.595 40.9922 28.8704 40.9922C28.7048 40.9922 28.4771 41.0854 28.3632 41.1992Z" fill="white"/>
<path d="M12.9395 10.217C9.86504 10.6 7.35996 12.7842 6.66641 15.7033C6.43867 16.6143 6.43867 18.167 6.66641 19.0986C7.15293 21.1172 8.60215 22.9184 10.4965 23.85C11.6041 24.3883 12.4012 24.5643 13.7158 24.5643C15.1754 24.5643 16.2209 24.3055 17.7529 23.5498C20.1338 22.3904 21.7797 20.5789 22.2973 18.5707C23.0426 15.6826 21.024 12.6186 17.3078 11.0141C15.9 10.4033 14.0781 10.0721 12.9395 10.217ZM15.2996 11.9768C17.8668 12.5875 20.051 14.3266 20.7031 16.252C21.2621 17.9082 20.5582 19.7094 18.7984 21.1379C16.8938 22.6699 14.0471 23.3945 12.1631 22.8356C10.2377 22.2662 8.77813 20.8067 8.22949 18.902C7.99141 18.1049 7.99141 16.6867 8.22949 15.8793C8.62285 14.4922 9.67871 13.1568 10.9105 12.484C12.308 11.7076 13.5916 11.5627 15.2996 11.9768Z" fill="white"/>
<path d="M38.6113 10.2066C37.2966 10.3723 35.7025 10.9106 34.5328 11.5938C31.9863 13.0844 30.6199 15.134 30.6199 17.4424C30.6199 18.9744 31.2306 20.3305 32.5142 21.6348C34.5224 23.6637 37.8142 24.8955 40.2572 24.5436C42.0066 24.2848 43.166 23.7051 44.4185 22.4629C45.1638 21.7279 45.3812 21.4277 45.7849 20.5996C46.8408 18.4465 46.8408 16.3658 45.7849 14.1816C45.3916 13.3639 45.1742 13.0637 44.4185 12.3184C43.0935 10.9934 41.6236 10.3309 39.7499 10.217C39.3255 10.1859 38.808 10.1859 38.6113 10.2066ZM40.9921 12.0078C42.8865 12.5668 44.3253 14.0678 44.8222 16.0035C45.081 17.018 45.081 17.7633 44.8222 18.7777C44.5531 19.844 44.108 20.61 43.2798 21.4277C42.1722 22.5147 40.9507 23.0115 39.3876 23.0115C38.1972 23.0115 37.2863 22.7838 35.9613 22.1524C34.1912 21.3035 32.8972 20.0613 32.39 18.7363C32.0794 17.9496 32.0898 16.8213 32.39 16.0242C33.0111 14.399 34.9261 12.8463 37.1828 12.1113C38.5388 11.6766 39.7292 11.6455 40.9921 12.0078Z" fill="white"/>
</svg>
