<svg width="54" height="53" viewBox="0 0 54 53" fill="none" xmlns="http://www.w3.org/2000/svg">
<g clip-path="url(#clip0_166_26)">
<path d="M20.3987 4.14062C17.6245 4.50293 15.5748 7.24609 16.0303 9.9582C16.4651 12.5254 18.525 14.2852 21.0612 14.2852C22.5621 14.2852 23.6801 13.8297 24.6946 12.7945C25.709 11.7697 26.1955 10.6 26.1955 9.21289C26.1955 6.12812 23.4627 3.74726 20.3987 4.14062Z" fill="white"/>
<path d="M14.6743 13.457C13.929 13.5916 13.3182 13.9332 12.7489 14.5439C11.7966 15.5998 11.8587 14.782 11.8276 25.7754L11.7966 35.4541L12.221 38.9426C12.4487 40.8576 12.635 42.5449 12.635 42.6898V42.959H7.53172H2.41805L1.7866 43.2799C1.11375 43.6111 0.761798 43.9631 0.389141 44.6566C0.0475395 45.3088 0.0682427 46.551 0.440899 47.2652C0.761798 47.876 1.31043 48.3832 1.96258 48.6937C2.4284 48.9111 2.54227 48.9111 9.52958 48.9111H16.6204L17.2104 48.6213C18.2145 48.1348 18.9391 47.0582 18.9495 46.0748C18.9599 45.9299 18.7632 43.4662 18.5147 40.6092C18.2766 37.7521 18.111 35.3816 18.1421 35.3402C18.2249 35.2678 26.2784 35.806 26.5165 35.8992C26.6614 35.9613 26.4647 36.6445 25.1811 40.5781C23.8561 44.6463 23.6802 45.2674 23.6698 45.9092C23.6491 47.6068 24.9017 48.8801 26.6097 48.8801C27.7173 48.8801 28.6075 48.3832 29.1458 47.4723C29.2804 47.2445 30.3362 44.1391 31.4956 40.5781C33.5142 34.3672 33.597 34.0773 33.597 33.2803C33.597 32.5453 33.5659 32.39 33.2761 31.8828C32.8827 31.1892 32.2616 30.6924 31.5474 30.4957C31.2472 30.4025 29.7255 30.1955 28.1624 30.0195C26.5993 29.8435 25.2122 29.6779 25.088 29.6572C24.8602 29.6055 24.8499 29.5537 24.8499 28.6221C24.8499 28.0838 24.8188 27.6387 24.7878 27.6387C24.7464 27.6387 23.1315 28.1562 21.1854 28.798C17.9661 29.8539 17.5831 29.9574 16.8792 29.9574C16.3099 29.9574 15.9683 29.8953 15.6163 29.74C14.6225 29.2846 13.7944 28.2287 13.6288 27.1728C13.5874 26.9348 13.6288 26.2619 13.7323 25.6201C14.3431 21.583 14.4776 20.7756 14.5294 20.9101C14.5604 20.993 14.7054 22.2041 14.8606 23.6015C15.0056 24.999 15.1815 26.324 15.2333 26.5517C15.3782 27.09 16.2581 27.9596 16.8378 28.1355C17.5003 28.3322 17.8315 28.2908 19.2393 27.8353C25.4917 25.8271 27.3446 25.206 27.7069 24.999C29.4046 24.026 29.1769 21.3967 27.3343 20.6203C26.5993 20.3097 26.1024 20.4029 23.0384 21.3967C21.4442 21.9142 20.0364 22.3697 19.9225 22.4008C19.7052 22.4732 19.6948 22.4422 19.6224 20.8273L19.5499 19.1918L20.0261 17.9496C20.2952 17.2767 20.6472 16.5521 20.8128 16.3451L21.113 15.9621L20.4194 15.8896C18.8977 15.7344 17.3968 15.0201 16.3513 13.9539C15.7095 13.3121 15.6681 13.2914 14.6743 13.457Z" fill="white"/>
<path d="M28.9284 12.0699C27.0754 12.7324 26.5475 15.0615 27.9346 16.4797L28.3073 16.873H25.471C21.9514 16.873 22.1585 16.7902 21.5477 18.3533C21.144 19.4092 21.0301 19.9889 21.2061 20.258C21.2682 20.3615 21.8065 20.2166 23.411 19.699C25.3778 19.0469 25.5848 18.9951 26.4544 18.9951C27.3032 18.9951 27.4585 19.0262 28.0795 19.3367C28.535 19.5644 28.9491 19.875 29.3424 20.2891L29.9118 20.9102H31.5784C33.1208 20.9102 33.245 20.9205 33.1932 21.0861C32.9965 21.7072 31.5784 27.2971 31.5784 27.4316C31.5784 27.5352 31.6715 27.7318 31.7958 27.8871C32.0028 28.1562 32.0131 28.1562 33.4313 28.1562C34.6631 28.1562 34.8805 28.1355 35.0254 27.9699C35.1083 27.8768 35.6672 25.9514 36.2573 23.7051L37.3235 19.6162L43.3481 19.5852C49.2899 19.5644 49.3727 19.5644 49.4866 19.7715C49.5901 19.9682 49.704 19.9785 51.2256 19.9785C52.3643 19.9785 52.9026 19.9371 52.9854 19.8543C53.0682 19.7715 53.1096 19.2643 53.1096 18.2498C53.1096 16.9041 53.0889 16.7695 52.9129 16.666C52.7991 16.6143 52.0538 16.5625 51.2567 16.5625C49.9317 16.5625 49.7764 16.5832 49.5901 16.7695C49.3934 16.9662 49.2485 16.9766 45.17 16.9766H40.9569L41.402 16.6039C42.0645 16.0346 42.2922 15.5273 42.2922 14.5957C42.2922 13.6641 42.0645 13.1568 41.402 12.5978C40.5946 11.9043 40.636 11.9043 34.6942 11.9146C30.2948 11.9146 29.2803 11.9457 28.9284 12.0699Z" fill="white"/>
<path d="M25.3158 14.3783C25.202 14.4922 24.8293 14.751 24.498 14.9477L23.877 15.3203H24.7258H25.5746V14.751C25.5746 14.4404 25.5643 14.1816 25.5436 14.1816C25.5332 14.1816 25.4297 14.2748 25.3158 14.3783Z" fill="white"/>
</g>
<defs>
<clipPath id="clip0_166_26">
<rect width="53" height="53" fill="white" transform="translate(0.109863)"/>
</clipPath>
</defs>
</svg>
