<svg width="53" height="53" viewBox="0 0 53 53" fill="none" xmlns="http://www.w3.org/2000/svg">
<path d="M21.6969 0.165631C19.7405 0.641803 18.0532 2.33946 17.5977 4.33731C17.4114 5.13438 17.5149 6.72852 17.7944 7.47383C18.343 8.9127 19.4817 10.0824 20.9102 10.6828C22.3284 11.2729 24.1088 11.2004 25.5684 10.4758C26.4483 10.041 27.5662 8.88165 28.001 7.93965C28.4772 6.9045 28.4772 6.76993 27.9907 7.05977C27.5248 7.33926 26.3758 7.43243 25.7237 7.2461C24.6678 6.9459 23.9743 6.10743 23.9846 5.12403C23.9846 4.2545 24.4504 3.62305 25.4131 3.18829C25.8582 2.99161 26.1584 2.9502 27.6387 2.89844C29.0672 2.85704 29.4192 2.81563 29.7608 2.63965C29.9885 2.52579 30.1748 2.36016 30.1748 2.27735C30.1748 2.02891 28.8705 1.6459 27.8043 1.5838C26.9037 1.52169 26.8416 1.50098 26.2723 1.07657C24.9784 0.124225 23.2703 -0.217376 21.6969 0.165631Z" fill="white"/>
<path d="M25.6719 3.6541C24.9266 4.00606 24.5332 4.50293 24.5332 5.13438C24.5332 5.91074 25.2578 6.65606 26.148 6.79063C27.1314 6.93555 27.9596 6.61465 28.4357 5.91074C28.6428 5.6002 28.6738 5.42422 28.6738 4.54434V3.51953L27.3074 3.52988C26.4896 3.52988 25.8271 3.58164 25.6719 3.6541Z" fill="white"/>
<path d="M29.1813 9.28536C29.057 9.5545 28.8293 10.0617 28.674 10.4137L28.3945 11.0451L27.525 11.1072C27.0488 11.1486 26.376 11.1797 26.0344 11.1797C25.6928 11.1797 25.1131 11.2832 24.7404 11.3971C23.933 11.6662 22.2871 11.7076 21.4797 11.4799C21.0967 11.3764 20.5584 11.3453 19.4301 11.3867L17.8877 11.4385L18.1672 11.6973C18.3225 11.8422 19.1402 12.9912 19.9891 14.2541C20.8379 15.5273 21.5832 16.5625 21.635 16.5625C21.8523 16.5625 24.1297 15.3617 25.6824 14.4301C27.5146 13.3328 28.0529 13.1465 28.8293 13.3432C29.5021 13.5088 30.0922 13.9332 30.3924 14.4508L30.6615 14.8959L31.7484 14.927L32.8457 14.958L33.1977 16.3037C33.7359 18.4051 33.9326 18.933 34.2018 19.0055C34.4398 19.0572 35.2059 18.8398 35.827 18.5189L36.1996 18.3326L35.8994 17.2147C35.2576 14.7406 35.1438 13.4053 35.5371 12.7324C35.7545 12.3391 35.7959 12.3184 36.2617 12.3184C36.6861 12.3184 36.7482 12.3494 36.7482 12.5357C36.7482 12.7324 36.7896 12.7531 37.1416 12.7014C37.3486 12.66 38.3217 12.5357 39.2844 12.4219C41.4168 12.1631 41.51 12.1424 41.51 11.9664C41.51 11.8629 42.1414 11.8215 44.5844 11.7594C46.2717 11.718 47.6691 11.6766 47.6898 11.6662C47.7002 11.6455 47.6898 11.3971 47.6484 11.1072L47.5863 10.5793L44.5637 10.6311C41.6238 10.6932 41.541 10.6828 41.4893 10.4861C41.4375 10.2998 41.2512 10.2688 39.1705 10.1135C36.4273 9.8961 36.6447 9.8961 36.6447 10.1445C36.6447 10.3205 36.5723 10.3516 36.1893 10.3516H35.7441L35.682 9.77188C35.651 9.45098 35.6096 9.18184 35.5889 9.16114C35.5682 9.14043 34.5123 9.07832 33.2287 9.01621C31.9451 8.95411 30.558 8.87129 30.1439 8.84024L29.3986 8.77813L29.1813 9.28536ZM33.767 10.041C34.4605 10.041 34.4709 10.041 34.4709 10.3205V10.5897L33.3633 10.5275C32.7629 10.4861 31.7381 10.4551 31.0859 10.4551H29.9162V10.1756V9.90645L31.4896 9.96856C32.3488 10.01 33.3736 10.041 33.767 10.041Z" fill="white"/>
<path d="M16.2624 9.00586C15.9519 9.05762 15.3204 9.275 14.8546 9.51309C13.1466 10.3619 12.1528 11.8111 11.2833 14.751C10.2068 18.4051 9.91691 21.4898 10.2896 25.3613C10.5173 27.6283 10.921 28.591 12.2564 30.0092C12.6704 30.444 14.4819 32.3797 16.3038 34.3154C18.1153 36.2512 19.7716 38.0213 19.989 38.249L20.3927 38.6631L21.6245 44.7912C22.9392 51.3541 23.0116 51.6129 23.7466 52.234C25.5995 53.8178 28.3737 52.7412 28.7257 50.3086C28.7775 49.9359 28.498 48.4246 27.4318 43.1143C26.6864 39.4084 25.9929 36.1994 25.8894 35.9613C25.703 35.5473 24.9991 34.7709 20.962 30.475L19.0884 28.4979L18.9642 26.6346C18.8814 25.2889 18.871 24.3572 18.9538 23.26L19.0573 21.7383L16.7179 18.2602C15.4239 16.3451 14.2956 14.575 14.2128 14.3162C13.9023 13.426 14.2335 12.3287 14.9788 11.7076C15.4757 11.2936 16.3245 11.0348 16.8732 11.1279C17.2148 11.19 17.2872 11.1693 17.2872 11.0348C17.2872 10.8898 17.4632 10.8691 18.5294 10.8691C19.2126 10.8691 19.7716 10.8277 19.7716 10.7863C19.7716 10.7449 19.637 10.6311 19.4714 10.5275C19.3161 10.4344 18.9021 10.0617 18.5605 9.69942C17.9808 9.06797 17.9083 9.02657 17.3804 8.97481C17.0698 8.94375 16.573 8.96446 16.2624 9.00586Z" fill="white"/>
<path d="M15.7863 11.8215C14.9375 12.2873 14.4923 13.1879 14.7097 14.0264C14.7822 14.2748 15.7966 15.8896 17.2148 18.0117C19.2334 21.0137 19.6785 21.6244 20.0304 21.8107C20.5273 22.0902 21.2933 22.1213 21.7695 21.8832C22.7011 21.407 29.264 17.4217 29.5746 17.1422C29.7816 16.9662 30.0093 16.6764 30.0818 16.49C30.4027 15.724 30.1232 14.7406 29.44 14.223C29.0984 13.9539 28.9638 13.9228 28.322 13.9228H27.5871L24.6162 15.7033C22.991 16.6867 21.6142 17.4941 21.5625 17.4941C21.5211 17.4941 20.6929 16.2934 19.7199 14.8441C17.7324 11.8525 17.5771 11.6973 16.5523 11.6973C16.2418 11.6973 15.9002 11.7594 15.7863 11.8215Z" fill="white"/>
<path d="M35.8164 13.985C35.8164 14.0988 36.127 15.8793 36.1891 16.076C36.3443 16.5625 36.5514 15.5791 36.4271 14.9891C36.3443 14.6164 35.8371 13.7676 35.8164 13.985Z" fill="white"/>
<path d="M31.5516 15.5066L30.7441 15.5377V15.9518C30.7441 16.4486 30.5578 16.9144 30.1852 17.3596C30.0195 17.5562 28.6842 18.4154 27.0176 19.4195C25.4234 20.3615 24.1191 21.1793 24.1191 21.2207C24.1191 21.2621 24.2848 21.4484 24.4814 21.6244C24.9059 21.9971 25.5684 22.1937 26.0756 22.1006C26.4793 22.0281 33.125 18.4465 33.125 18.3016C33.125 18.1773 32.4107 15.5066 32.3797 15.4859C32.359 15.4859 31.9863 15.4859 31.5516 15.5066Z" fill="white"/>
<path d="M12.0079 30.7648C12.0079 30.8373 12.1011 32.8559 12.215 35.2471C12.3806 38.8908 12.3909 39.6258 12.2771 39.8018C12.1943 39.9156 10.7347 41.8514 9.01633 44.0977C7.30832 46.344 5.77629 48.435 5.63137 48.7248C5.30012 49.377 5.26907 50.2154 5.52785 50.9918C6.1386 52.8344 8.49875 53.559 10.1032 52.3996C10.5484 52.0787 17.7945 42.607 18.1982 41.8307C18.4052 41.4166 18.4259 41.2199 18.4155 39.9674C18.4155 39.191 18.3845 38.249 18.3431 37.8764L18.2603 37.2035L15.1755 33.9221C13.4779 32.1209 12.07 30.6406 12.0493 30.6406C12.0286 30.6406 12.0079 30.7027 12.0079 30.7648Z" fill="white"/>
</svg>
