<svg width="48" height="29" viewBox="0 0 48 29" fill="none" xmlns="http://www.w3.org/2000/svg">
<path d="M46.9061 1.93363C47.2358 0.819786 46.9061 0 45.3199 0H40.0715C38.7349 0 38.1201 0.703947 37.7904 1.48809C37.7904 1.48809 35.1172 8.00183 31.339 12.2255C30.1182 13.4463 29.5569 13.8384 28.8886 13.8384C28.5589 13.8384 28.051 13.4463 28.051 12.3324V1.93363C28.051 0.597018 27.6767 0 26.5718 0H18.3204C17.4828 0 16.9838 0.623751 16.9838 1.20295C16.9838 2.46827 18.8729 2.76232 19.069 6.32661V14.0611C19.069 15.7542 18.766 16.066 18.0977 16.066C16.3155 16.066 11.9849 9.52556 9.41864 2.04056C8.90181 0.588108 8.3939 0 7.04838 0H1.79997C0.302965 0 0 0.703947 0 1.48809C0 2.87816 1.78214 9.78398 8.29588 18.9086C12.6354 25.1372 18.7482 28.5143 24.3085 28.5143C27.65 28.5143 28.0599 27.7658 28.0599 26.4738C28.0599 20.5214 27.7569 19.96 29.4321 19.96C30.2074 19.96 31.544 20.3521 34.6627 23.355C38.227 26.9193 38.8151 28.5143 40.8111 28.5143H46.0595C47.5565 28.5143 48.314 27.7658 47.8773 26.2866C46.8793 23.1768 40.1339 16.7789 39.8309 16.3512C39.0557 15.3532 39.2785 14.9076 39.8309 14.0166C39.8398 14.0077 46.2467 4.99001 46.9061 1.93363Z" fill="#08B256"/>
</svg>
