<svg width="189" height="47" viewBox="0 0 189 47" fill="none" xmlns="http://www.w3.org/2000/svg">
<g clip-path="url(#clip0_6_101)">
<path d="M30.7125 5.97515C24.4125 8.24954 23.3625 16.1026 28.6125 21.1664C30.135 22.5825 30.3975 23.0975 30.135 24.2132C29.82 25.5435 29.82 25.5435 31.8675 25.5435C33.705 25.5435 34.2825 25.801 36.12 27.4317C37.3275 28.5045 38.43 29.8348 38.64 30.4356C39.375 32.8816 36.9075 35.3277 34.44 34.5982C33.3375 34.2548 32.7075 33.4824 31.5 30.9505C30.975 29.749 30.8175 29.749 28.2975 29.9635C24.7275 30.3068 24.5175 30.4785 24.885 32.5383C25.4625 35.2848 27.615 38.1599 29.9775 39.2757C31.815 40.091 32.7075 40.2198 36.5925 40.0481L41.055 39.9194L43.1025 38.0741C45.57 35.7568 46.515 32.71 45.675 29.6631C44.94 27.0025 44.1525 25.7581 41.58 23.3549C40.11 22.0246 39.585 21.2093 39.9 20.8231C40.5825 19.9219 40.0575 19.5357 38.115 19.5357C36.12 19.5357 34.5975 18.377 33.3375 16.0168C32.235 13.8282 32.34 12.9271 33.7575 11.5538C35.3325 10.0519 36.96 10.4381 38.325 12.7125C39.48 14.5578 40.7925 14.8152 44.0475 13.9141C45.9375 13.3562 46.095 12.5838 44.8875 10.1806C43.89 8.33537 42.2625 6.7905 40.32 5.97515C38.535 5.20271 32.8125 5.20271 30.7125 5.97515Z" fill="white"/>
<path d="M103.582 6.10386C102.375 6.27551 102.375 6.36134 102.375 13.442C102.375 17.39 102.165 20.823 101.955 21.0805C101.745 21.338 101.062 21.7671 100.432 22.0675C98.8574 22.7112 98.9099 23.5266 100.537 24.2561C102.375 25.0714 102.585 26.0584 102.217 32.667C101.85 40.3914 101.745 40.2197 105.735 40.0481L108.937 39.9193L109.095 32.3666L109.2 24.8139L110.512 24.3419C112.192 23.6982 112.192 22.8399 110.512 21.9388L109.2 21.2522V13.9569C109.2 7.2196 109.147 6.66172 108.202 6.23259C107.152 5.80346 105.735 5.76055 103.582 6.10386Z" fill="white"/>
<path d="M50.6101 6.83337C50.4526 7.13377 50.4001 8.33533 50.5051 9.49398C50.6626 11.5538 50.7151 11.5967 52.5001 11.7255C56.9101 11.9829 56.7001 11.7255 56.7001 16.9179C56.7001 21.4238 56.6476 21.5525 55.3876 22.0246C54.6526 22.2821 54.0751 22.8829 54.0751 23.312C54.0751 23.7411 54.6526 24.3419 55.3876 24.5994L56.7001 25.1143V32.0662C56.7001 35.9284 56.9101 39.3186 57.1726 39.6189C57.4351 40.0052 58.5376 40.1339 60.6901 40.0481L63.7876 39.9193L63.9451 32.5383L64.0501 25.1143L65.6251 24.4706C67.6201 23.6553 67.6201 23.2691 65.6251 22.1104C64.0501 21.2092 64.0501 21.1663 64.0501 17.0038C64.0501 12.1975 64.2076 11.94 67.7251 11.7255L70.0876 11.5967L70.2451 8.8932L70.4026 6.23259H60.6376C52.8676 6.23259 50.8201 6.36133 50.6101 6.83337Z" fill="white"/>
<path d="M76.0201 6.49008C75.7576 6.66173 75.6001 10.0519 75.6001 13.9999V21.2522L74.2876 21.9388C72.6076 22.8399 72.6076 23.6124 74.2876 24.5136C75.5476 25.2002 75.6001 25.2431 75.7051 32.5383L75.8626 39.9193L79.1701 40.0481L82.4251 40.1768V35.1131C82.4251 29.5773 82.6876 28.2899 83.7901 27.9466C85.4701 27.4316 86.0476 28.3328 87.7801 34.0403L89.5651 39.9193L92.8726 40.0481C94.7101 40.1339 96.4426 40.0052 96.7051 39.7906C97.0201 39.5331 96.4951 37.1729 95.3401 33.5682C93.1876 26.9167 93.0826 25.6722 94.5001 23.7411C95.3926 22.4966 95.5501 21.5526 95.5501 16.5317C95.5501 7.51999 94.3951 6.5759 83.2126 6.31842C79.4851 6.2326 76.2301 6.31842 76.0201 6.49008ZM88.3576 13.2274C89.1976 13.9999 89.3026 14.7294 89.1451 17.3042C88.9876 20.0506 88.7776 20.6085 87.7276 21.338C86.9401 21.8529 85.8376 22.1104 84.8401 22.0246C83.4226 21.8959 83.1601 21.6813 82.8451 20.1793C82.2676 17.5616 82.3726 13.5707 83.0026 12.5837C83.4751 11.8971 83.8951 11.7684 85.4701 12.0259C86.5726 12.1546 87.8326 12.7125 88.3576 13.2274Z" fill="white"/>
<path d="M117.915 6.91922C117.758 7.30544 117.6 10.7385 117.6 14.5577V21.5526L116.288 22.0246C114.608 22.6683 114.608 23.6982 116.288 24.3419L117.6 24.814L117.705 32.3667L117.863 39.9193L120.698 40.0481C122.64 40.1339 123.69 40.0052 123.953 39.619C124.215 39.3186 124.425 36.9154 124.425 34.2977C124.425 30.6501 124.583 29.4057 125.16 29.0194C126.21 28.3328 126.893 29.2769 129.413 34.7698C130.515 37.13 131.618 39.3186 131.933 39.576C132.248 39.9193 133.77 40.1339 136.028 40.1339C139.178 40.1339 139.65 40.0481 139.65 39.3615C139.65 38.9323 137.655 34.5552 135.188 29.6202C132.72 24.7281 130.725 20.4368 130.725 20.1364C130.725 19.7931 132.405 16.8321 134.4 13.5278C136.448 10.2235 138.075 7.21961 138.075 6.8763C138.075 6.31844 137.445 6.23261 134.558 6.31844L130.988 6.44717L128.888 9.70856C125.213 15.416 124.425 15.5877 124.425 10.7385C124.425 9.02196 124.268 7.30544 124.11 6.91922C123.638 5.93222 118.388 5.93222 117.915 6.91922Z" fill="white"/>
<path d="M145.268 6.533C145.058 6.66174 144.9 10.0519 144.9 13.9999V21.2093L143.273 22.1533L141.593 23.0974L143.273 24.2132L144.9 25.3289L145.005 32.6241L145.163 39.9193L154.193 40.0481L163.223 40.1339L163.538 38.6749C163.748 37.8595 163.748 36.615 163.538 35.8855L163.17 34.5552H158.393C155.715 34.5552 153.195 34.3836 152.828 34.169C151.778 33.6111 151.463 28.6761 152.355 27.26C152.985 26.3159 153.51 26.1443 156.45 25.9726L159.863 25.758V23.1833V20.6085L156.345 20.3939C154.455 20.2652 152.67 20.0077 152.408 19.836C152.198 19.6215 151.935 18.0766 151.83 16.3172C151.62 13.5707 151.778 13.0558 152.723 12.2833C153.668 11.5109 154.455 11.3822 158.498 11.3822H163.17L163.538 10.0948C163.748 9.36526 163.748 8.20661 163.538 7.52L163.17 6.2326H154.403C149.573 6.2326 145.425 6.36134 145.268 6.533Z" fill="white"/>
</g>
<defs>
<clipPath id="clip0_6_101">
<rect width="189" height="47" fill="white"/>
</clipPath>
</defs>
</svg>
